<svg width="46.000000" height="36.000000" viewBox="0 0 46 36" fill="none" xmlns="http://www.w3.org/2000/svg" xmlns:xlink="http://www.w3.org/1999/xlink">
	<desc>
			Created with Pixso.
	</desc>
	<defs>
		<clipPath id="clip309_36">
			<rect id="menu-burger" rx="-0.500000" width="45.000000" height="35.000000" transform="translate(0.500000 0.500000)" fill="white" fill-opacity="0"/>
		</clipPath>
	</defs>
	<rect id="menu-burger" rx="-0.500000" width="45.000000" height="35.000000" transform="translate(0.500000 0.500000)" fill="#FFFFFF" fill-opacity="0"/>
	<g clip-path="url(#clip309_36)">
		<path id="Vector" d="M6.7 7.5C6.2 7.5 5.71 7.65 5.35 7.93C4.99 8.22 4.79 8.6 4.79 9C4.79 9.39 4.99 9.77 5.35 10.06C5.71 10.34 6.2 10.5 6.7 10.5L39.29 10.5C39.8 10.5 40.28 10.34 40.64 10.06C41 9.77 41.2 9.39 41.2 9C41.2 8.6 41 8.22 40.64 7.93C40.28 7.65 39.8 7.5 39.29 7.5L6.7 7.5ZM4.79 18C4.79 17.6 4.99 17.22 5.35 16.93C5.71 16.65 6.2 16.5 6.7 16.5L39.29 16.5C39.8 16.5 40.28 16.65 40.64 16.93C41 17.22 41.2 17.6 41.2 18C41.2 18.39 41 18.77 40.64 19.06C40.28 19.34 39.8 19.5 39.29 19.5L6.7 19.5C6.2 19.5 5.71 19.34 5.35 19.06C4.99 18.77 4.79 18.39 4.79 18ZM4.79 27C4.79 26.6 4.99 26.22 5.35 25.94C5.71 25.65 6.2 25.5 6.7 25.5L39.29 25.5C39.8 25.5 40.28 25.65 40.64 25.94C41 26.22 41.2 26.6 41.2 27C41.2 27.39 41 27.78 40.64 28.06C40.28 28.34 39.8 28.5 39.29 28.5L6.7 28.5C6.2 28.5 5.71 28.34 5.35 28.06C4.99 27.78 4.79 27.39 4.79 27Z" fill="#FFFFFF" fill-opacity="1.000000" fill-rule="evenodd"/>
	</g>
</svg>
